# Blender v2.81 (sub 16) OBJ File: ''
# www.blender.org
mtllib tree.mtl
o Cube
v 1.000000 1.000000 -1.000000
v 1.451198 -1.000000 -1.451198
v 1.000000 1.000000 1.000000
v 1.451198 -1.000000 1.451198
v -1.000000 1.000000 -1.000000
v -1.451198 -1.000000 -1.451198
v -1.000000 1.000000 1.000000
v -1.451198 -1.000000 1.451198
v 0.639634 9.523886 0.639634
v -0.639634 9.523886 0.639634
v 0.639634 9.523886 -0.639634
v -0.639634 9.523886 -0.639634
v 0.639634 9.523886 0.639634
v -0.639634 9.523886 0.639634
v 0.639634 9.523886 -0.639634
v -0.639634 9.523886 -0.639634
v 0.465590 10.706438 0.465590
v -0.465590 10.706438 0.465590
v 0.465590 10.706438 -0.465590
v -0.465590 10.706438 -0.465590
v 0.927927 2.704777 0.927927
v 0.855854 4.409554 0.855854
v 0.783780 6.114332 0.783780
v 0.711707 7.819109 0.711707
v -0.711707 7.819108 0.711707
v -0.783780 6.114331 0.783780
v -0.855854 4.409554 0.855854
v -0.927927 2.704777 0.927927
v -0.711707 7.819108 -0.711707
v -0.783780 6.114331 -0.783780
v -0.855854 4.409554 -0.855854
v -0.927927 2.704777 -0.927927
v 0.927927 2.704777 -0.927927
v 0.855854 4.409554 -0.855854
v 0.783780 6.114332 -0.783780
v 0.711707 7.819109 -0.711707
v 4.030435 7.653672 0.505471
v 3.983954 8.753107 0.458990
v 4.030435 7.653672 -0.505471
v 3.983954 8.753107 -0.458990
v -3.397771 10.708788 0.401185
v -3.397771 10.708788 -0.401185
v -3.442976 9.639534 0.446390
v -3.442976 9.639534 -0.446390
v 0.453908 8.114259 3.458254
v 0.412169 9.101542 3.416515
v -0.412169 9.101542 3.416515
v -0.453909 8.114258 3.458254
v -0.576111 8.934994 -2.449136
v -0.634452 7.555016 -2.507478
v 0.634452 7.555016 -2.507478
v 0.576111 8.934994 -2.449136
vt 0.625000 1.000000
vt 0.625000 0.750000
vt 0.625000 0.750000
vt 0.625000 1.000000
vt 0.375000 0.750000
vt 0.625000 0.750000
vt 0.625000 1.000000
vt 0.375000 1.000000
vt 0.375000 0.000000
vt 0.625000 0.000000
vt 0.625000 0.250000
vt 0.375000 0.250000
vt 0.125000 0.500000
vt 0.375000 0.500000
vt 0.125000 0.750000
vt 0.625000 0.500000
vt 0.625000 0.500000
vt 0.625000 0.250000
vt 0.625000 0.250000
vt 0.625000 0.500000
vt 0.625000 0.250000
vt 0.625000 0.250000
vt 0.625000 0.250000
vt 0.625000 0.500000
vt 0.625000 0.000000
vt 0.625000 0.000000
vt 0.625000 0.250000
vt 0.625000 0.750000
vt 0.625000 0.000000
vt 0.625000 1.000000
vt 0.625000 0.500000
vt 0.875000 0.500000
vt 0.875000 0.750000
vt 0.625000 0.750000
vt 0.625000 1.000000
vt 0.625000 0.250000
vt 0.625000 0.500000
vt 0.625000 0.250000
vt 0.625000 0.500000
vt 0.625000 0.250000
vt 0.625000 0.500000
vt 0.625000 0.500000
vt 0.625000 0.250000
vt 0.625000 0.750000
vt 0.625000 0.750000
vt 0.625000 0.750000
vt 0.625000 0.750000
vt 0.625000 0.750000
vt 0.625000 0.000000
vt 0.625000 0.000000
vt 0.625000 0.000000
vt 0.625000 0.000000
vt 0.625000 1.000000
vt 0.625000 1.000000
vt 0.625000 1.000000
vt 0.625000 0.750000
vt 0.625000 0.750000
vt 0.625000 0.500000
vt 0.625000 0.500000
vt 0.625000 0.000000
vt 0.625000 0.000000
vt 0.625000 1.000000
vt 0.625000 1.000000
vt 0.625000 1.000000
vt 0.625000 1.000000
vt 0.625000 0.000000
vt 0.625000 0.000000
vt 0.625000 0.500000
vt 0.625000 0.250000
vn -0.0000 0.0422 0.9991
vn 0.0000 0.2201 0.9755
vn -0.9755 0.2201 0.0000
vn 0.0000 -1.0000 0.0000
vn 0.9755 0.2201 0.0000
vn 0.0000 0.2201 -0.9755
vn 0.0000 0.0000 1.0000
vn -0.0669 0.0450 -0.9967
vn 0.9991 0.0422 0.0000
vn -0.0000 0.0422 -0.9991
vn -0.9893 0.1456 0.0000
vn 0.0000 1.0000 0.0000
vn 0.0000 0.1456 0.9893
vn 0.0000 0.1456 -0.9893
vn 0.9893 0.1456 0.0000
vn -0.0000 0.8414 0.5404
vn 0.0642 0.0449 0.9969
vn -0.9991 0.0422 0.0000
vn 0.9950 0.0458 0.0885
vn -0.2745 0.9616 0.0000
vn 0.0642 0.0449 -0.9969
vn 0.4284 -0.9036 0.0000
vn -0.0669 0.0450 0.9967
vn 0.3947 0.9188 0.0000
vn -0.5546 -0.8321 0.0000
vn 0.0000 -0.8009 0.5989
vn -0.0000 0.9036 -0.4284
vn -0.9950 0.0458 0.0885
vn 0.9978 0.0443 -0.0494
vn -0.9978 0.0443 -0.0494
vn 0.0000 -0.7673 -0.6413
usemtl Material
s off
f 25/1/1 24/2/1 9/3/1 10/4/1
f 4/5/2 3/6/2 7/7/2 8/8/2
f 8/9/3 7/10/3 5/11/3 6/12/3
f 6/13/4 2/14/4 4/5/4 8/15/4
f 2/14/5 1/16/5 3/6/5 4/5/5
f 6/12/6 5/11/6 1/16/6 2/14/6
f 11/17/7 12/18/7 16/19/7 15/20/7
f 12/18/8 29/21/8 44/22/8 42/23/8
f 24/2/9 36/24/9 11/17/9 9/3/9
f 36/24/10 29/21/10 12/18/10 11/17/10
f 16/19/11 14/25/11 18/26/11 20/27/11
f 9/3/7 11/17/7 15/20/7 13/28/7
f 12/18/7 10/29/7 14/25/7 16/19/7
f 10/4/7 9/3/7 13/28/7 14/30/7
f 19/31/12 20/32/12 18/33/12 17/34/12
f 14/30/13 13/28/13 17/34/13 18/35/13
f 15/20/14 16/19/14 20/27/14 19/31/14
f 13/28/15 15/20/15 19/31/15 17/34/15
f 1/16/10 5/11/10 32/36/10 33/37/10
f 33/37/10 32/36/10 31/38/10 34/39/10
f 34/39/10 31/38/10 30/40/10 35/41/10
f 29/21/16 36/24/16 52/42/16 49/43/16
f 3/6/9 1/16/9 33/37/9 21/44/9
f 21/44/9 33/37/9 34/39/9 22/45/9
f 22/45/9 34/39/9 35/41/9 23/46/9
f 24/2/17 23/46/17 37/47/17 38/48/17
f 5/11/18 7/10/18 28/49/18 32/36/18
f 32/36/18 28/49/18 27/50/18 31/38/18
f 31/38/18 27/50/18 26/51/18 30/40/18
f 30/40/18 26/51/18 25/52/18 29/21/18
f 7/7/1 3/6/1 21/44/1 28/53/1
f 28/53/1 21/44/1 22/45/1 27/54/1
f 27/54/1 22/45/1 23/46/1 26/55/1
f 23/46/19 24/2/19 46/56/19 45/57/19
f 37/47/9 39/58/9 40/59/9 38/48/9
f 36/24/20 24/2/20 38/48/20 40/59/20
f 35/41/21 36/24/21 40/59/21 39/58/21
f 23/46/22 35/41/22 39/58/22 37/47/22
f 44/22/18 43/60/18 41/61/18 42/23/18
f 25/1/23 10/4/23 41/62/23 43/63/23
f 10/29/24 12/18/24 42/23/24 41/61/24
f 29/21/25 25/52/25 43/60/25 44/22/25
f 48/64/1 45/57/1 46/56/1 47/65/1
f 26/55/26 23/46/26 45/57/26 48/64/26
f 24/2/27 25/1/27 47/65/27 46/56/27
f 25/52/28 26/51/28 48/66/28 47/67/28
f 51/68/10 50/69/10 49/43/10 52/42/10
f 36/24/29 35/41/29 51/68/29 52/42/29
f 30/40/30 29/21/30 49/43/30 50/69/30
f 35/41/31 30/40/31 50/69/31 51/68/31
